#N canvas -7 0 766 772 10;
#X obj 44 33 osc~ 440;
#X obj 61 68 osc~ 550;
#X obj 58 147 osc~ 660;
#X obj 44 186 +~;
#X obj 45 121 +~;
#X obj 155 185 line~;
#X obj 43 301 dac~;
#X msg 155 121 0;
#X obj 44 230 *~;
#X msg 194 140 0.1;
#X text 155 100 Off;
#X text 203 121 On;
#X connect 0 0 4 0;
#X connect 1 0 4 1;
#X connect 2 0 3 1;
#X connect 3 0 8 0;
#X connect 4 0 3 0;
#X connect 5 0 8 1;
#X connect 7 0 5 0;
#X connect 8 0 6 0;
#X connect 9 0 5 0;
