#N canvas -6 2 1530 769 10;
#N canvas 0 50 450 250 (subpatch) 0;
#X array array1 145060 float 2;
#X coords 0 1 145060 -1 200 140 1 0 0;
#X restore 924 146 graph;
#X obj 959 352 soundfiler;
#N canvas 0 50 450 250 (subpatch) 0;
#X array array2 145060 float 2;
#X coords 0 1 145060 -1 200 140 1;
#X restore 944 395 graph;
#X obj 928 92 soundfiler;
#X obj 78 93 phasor~;
#X obj 71 130 *~ 44100;
#X obj 67 210 +~ 1;
#X obj 64 323 tabread4~;
#X obj 64 437 *~;
#X obj 62 490 *~;
#X obj 174 490 line~;
#X obj 213 447 pack 0 20;
#X obj 213 418 / 1000;
#X floatatom 238 372 5 0 0 0 - - -, f 5;
#X obj 61 555 dac~;
#X obj 518 17 tgl 15 0 empty empty empty 17 7 0 10 -262144 -1 -1 0
1;
#X obj 389 236 bng 15 250 50 0 empty empty empty 17 7 0 10 -262144
-1 -1;
#X obj 515 95 float;
#X obj 515 134 + 1;
#X floatatom 553 122 5 0 0 0 - - -, f 5;
#X floatatom 642 190 5 0 0 0 - - -, f 5;
#X obj 518 47 metro;
#X obj 515 155 mod 6;
#X obj 515 217 select 0 1 2 3 4 5;
#X obj 571 272 bng 15 250 50 0 empty empty empty 17 7 0 10 -262144
-1 -1;
#X obj 616 273 bng 15 250 50 0 empty empty empty 17 7 0 10 -262144
-1 -1;
#X obj 592 272 bng 15 250 50 0 empty empty empty 17 7 0 10 -262144
-1 -1;
#X obj 551 270 bng 15 250 50 0 empty empty empty 17 7 0 10 -262144
-1 -1;
#X obj 511 271 bng 15 250 50 0 empty empty empty 17 7 0 10 -262144
-1 -1;
#X obj 533 270 bng 15 250 50 0 empty empty empty 17 7 0 10 -262144
-1 -1;
#X msg 119 232 set array1;
#X msg 217 290 set array2;
#X obj 801 558 unpack f f f;
#X obj 594 443 send messages;
#X obj 801 523 r messages;
#X obj 745 608 mtof;
#X obj 660 645 send to-sampler;
#X obj 48 27 receive to-sampler;
#X obj 221 155 receive to-table;
#X obj 806 598 send to-table;
#X obj 221 205 select 1 2;
#X floatatom 113 382 5 0 0 0 - - -, f 5;
#X obj 916 597 send to-volume;
#X obj 136 350 receive to-volume;
#X floatatom 572 24 5 0 0 0 - - -, f 5;
#X obj 78 64 / 261;
#X obj 67 175 +~ 44100;
#X msg 131 69 0;
#X obj 232 86 delay 10;
#X obj 284 49 t b;
#X obj 325 87 delay;
#X floatatom 372 62 5 0 0 0 - - -, f 5;
#X floatatom 286 28 5 0 0 0 - - -, f 5;
#X obj 394 559 line~;
#X msg 473 533 0 30;
#X msg 392 531 0 10;
#X msg 433 533 1 10;
#X msg 927 63 read -resize bing-bing.wav array1;
#X obj 161 546 s~ source.pd;
#X obj 173 593 delwrite~ 9e.delay 5000;
#X obj 422 703 rev3~ 100 90;
#X obj 425 735 output~;
#X floatatom 483 594 5 0 100 0 - - -, f 5;
#X floatatom 518 619 5 0 100 0 - - -, f 5;
#X floatatom 502 679 5 0 100 0 - - -, f 5;
#X text 517 726 pretty good reverb;
#X text 539 593 feedback (1-100);
#X text 561 617 crossover frequency;
#X text 548 680 damping above crossover;
#X obj 356 626 r~ source.pd;
#X msg 959 321 read -resize bing-bing.wav array2;
#X msg 848 -9 loadbang;
#X msg 947 289 loadbang;
#X msg 947 289 loadbang;
#X msg 947 289 loadbang;
#X obj 1132 658 delwrite~ 9e.reverb-del 5000;
#X obj 1132 635 +~;
#X obj 1208 678 output~;
#X obj 1200 600 delread~ 9e.reverb-del 20;
#X obj 1200 622 *~ 0.9;
#X text 1292 637 proto reverb;
#X obj 1127 576 r~ source.pd;
#X msg 412 316 61 1 1;
#X msg 477 311 64 2 0.5;
#X msg 535 333 61 1 1;
#X msg 577 311 63 2 0.5;
#X msg 657 311 61 1 1;
#X msg 730 315 59 2 0.5;
#X connect 4 0 5 0;
#X connect 5 0 46 0;
#X connect 6 0 7 0;
#X connect 7 0 8 0;
#X connect 8 0 9 0;
#X connect 9 0 14 0;
#X connect 9 0 58 0;
#X connect 9 0 59 0;
#X connect 10 0 9 1;
#X connect 11 0 10 0;
#X connect 12 0 11 0;
#X connect 13 0 12 0;
#X connect 15 0 21 0;
#X connect 17 0 18 0;
#X connect 18 0 22 0;
#X connect 19 0 18 1;
#X connect 21 0 17 0;
#X connect 21 0 16 0;
#X connect 22 0 17 1;
#X connect 22 0 20 0;
#X connect 22 0 23 0;
#X connect 23 0 28 0;
#X connect 23 1 29 0;
#X connect 23 2 27 0;
#X connect 23 3 24 0;
#X connect 23 4 26 0;
#X connect 23 5 25 0;
#X connect 24 0 85 0;
#X connect 25 0 87 0;
#X connect 26 0 86 0;
#X connect 27 0 84 0;
#X connect 28 0 82 0;
#X connect 29 0 83 0;
#X connect 30 0 7 0;
#X connect 31 0 7 0;
#X connect 32 0 35 0;
#X connect 32 1 39 0;
#X connect 32 2 42 0;
#X connect 34 0 32 0;
#X connect 35 0 36 0;
#X connect 37 0 45 0;
#X connect 38 0 40 0;
#X connect 40 0 30 0;
#X connect 40 1 31 0;
#X connect 41 0 8 1;
#X connect 43 0 41 0;
#X connect 44 0 21 1;
#X connect 45 0 4 0;
#X connect 45 0 49 0;
#X connect 46 0 6 0;
#X connect 47 0 4 1;
#X connect 47 0 55 0;
#X connect 48 0 47 0;
#X connect 48 0 56 0;
#X connect 49 0 48 0;
#X connect 49 0 50 0;
#X connect 50 0 54 0;
#X connect 51 0 50 1;
#X connect 52 0 49 0;
#X connect 53 0 8 1;
#X connect 54 0 53 0;
#X connect 55 0 53 0;
#X connect 56 0 53 0;
#X connect 57 0 3 0;
#X connect 60 0 61 0;
#X connect 60 1 61 1;
#X connect 62 0 60 3;
#X connect 63 0 60 4;
#X connect 64 0 60 5;
#X connect 69 0 60 0;
#X connect 70 0 1 0;
#X connect 71 0 57 0;
#X connect 72 0 70 0;
#X connect 76 0 75 0;
#X connect 78 0 79 0;
#X connect 79 0 76 1;
#X connect 79 0 77 0;
#X connect 79 0 77 1;
#X connect 81 0 76 0;
#X connect 82 0 33 0;
#X connect 83 0 33 0;
#X connect 84 0 33 0;
#X connect 85 0 33 0;
#X connect 86 0 33 0;
#X connect 87 0 33 0;
