#N canvas -9 0 1532 781 10;
#N canvas 0 50 450 250 (subpatch) 0;
#X array array1 145060 float 2;
#X coords 0 1 145060 -1 200 140 1 0 0;
#X restore 924 146 graph;
#X obj 959 352 soundfiler;
#N canvas 0 50 450 250 (subpatch) 0;
#X array array2 145060 float 2;
#X coords 0 1 145060 -1 200 140 1;
#X restore 944 395 graph;
#X obj 928 92 soundfiler;
#X obj 78 93 phasor~;
#X obj 71 130 *~ 44100;
#X obj 67 210 +~ 1;
#X obj 64 323 tabread4~;
#X obj 64 437 *~;
#X obj 62 490 *~;
#X obj 174 490 line~;
#X obj 213 447 pack 0 20;
#X obj 213 418 / 1000;
#X floatatom 238 372 5 0 0 0 - - -, f 5;
#X obj 61 555 dac~;
#X obj 518 17 tgl 15 0 empty empty empty 17 7 0 10 -262144 -1 -1 0
1;
#X obj 389 236 bng 15 250 50 0 empty empty empty 17 7 0 10 -262144
-1 -1;
#X obj 515 95 float;
#X obj 515 134 + 1;
#X floatatom 553 122 5 0 0 0 - - -, f 5;
#X floatatom 642 190 5 0 0 0 - - -, f 5;
#X obj 518 47 metro;
#X obj 515 155 mod 6;
#X obj 515 217 select 0 1 2 3 4 5;
#X obj 571 272 bng 15 250 50 0 empty empty empty 17 7 0 10 -262144
-1 -1;
#X obj 616 273 bng 15 250 50 0 empty empty empty 17 7 0 10 -262144
-1 -1;
#X obj 592 272 bng 15 250 50 0 empty empty empty 17 7 0 10 -262144
-1 -1;
#X obj 551 270 bng 15 250 50 0 empty empty empty 17 7 0 10 -262144
-1 -1;
#X obj 511 271 bng 15 250 50 0 empty empty empty 17 7 0 10 -262144
-1 -1;
#X obj 533 270 bng 15 250 50 0 empty empty empty 17 7 0 10 -262144
-1 -1;
#X msg 119 232 set array1;
#X msg 217 290 set array2;
#X msg 535 333 65 1 1;
#X msg 657 311 62 1 1;
#X msg 577 311 56 2 0.5;
#X msg 730 315 63 2 0.5;
#X obj 801 558 unpack f f f;
#X obj 594 443 send messages;
#X obj 801 523 r messages;
#X obj 745 608 mtof;
#X obj 660 645 send to-sampler;
#X obj 48 27 receive to-sampler;
#X obj 221 155 receive to-table;
#X obj 806 598 send to-table;
#X obj 221 205 select 1 2;
#X floatatom 113 382 5 0 0 0 - - -, f 5;
#X obj 916 597 send to-volume;
#X obj 136 350 receive to-volume;
#X floatatom 564 19 5 0 0 0 - - -, f 5;
#X obj 78 64 / 261;
#X obj 67 175 +~ 44100;
#X msg 131 69 0;
#X obj 232 86 delay 10;
#X obj 284 49 t b;
#X obj 325 87 delay;
#X floatatom 372 62 5 0 0 0 - - -, f 5;
#X floatatom 286 28 5 0 0 0 - - -, f 5;
#X obj 394 559 line~;
#X msg 473 533 0 30;
#X msg 392 531 0 10;
#X msg 433 533 1 10;
#X msg 927 63 read -resize bing-bing.wav array1;
#X msg 477 311 60 2 0.5;
#X msg 412 316 58 1 1;
#X obj 161 546 s~ source.pd;
#X obj 173 593 delwrite~ 9e.delay 5000;
#X obj 422 703 rev3~ 100 90;
#X obj 441 723 output~;
#X floatatom 483 594 5 0 100 0 - - -, f 5;
#X floatatom 518 619 5 0 100 0 - - -, f 5;
#X floatatom 502 679 5 0 100 0 - - -, f 5;
#X text 517 726 pretty good reverb;
#X text 539 593 feedback (1-100);
#X text 561 617 crossover frequency;
#X text 548 680 damping above crossover;
#X obj 357 656 r~ source.pd;
#X msg 959 321 read -resize bing-bing.wav array2;
#X msg 848 -9 loadbang;
#X msg 947 289 loadbang;
#X msg 947 289 loadbang;
#X msg 947 289 loadbang;
#X obj 861 718 delwrite~ 9e.reverb-del 5000;
#X obj 861 695 +~;
#X obj 937 738 output~;
#X obj 929 660 delread~ 9e.reverb-del 20;
#X obj 929 682 *~ 0.9;
#X text 1021 697 proto reverb;
#X obj 856 636 r~ source.pd;
#X obj 1225 198 *~ 0.1;
#X floatatom 1320 122 5 0 32 2 Bits - -, f 5;
#X text 1350 180 1st parameter: bit depth;
#X obj 1188 106 r~ source.pd;
#X obj 1259 239 output~;
#X msg 1208 514 \$1 20;
#X obj 1208 536 line~;
#X floatatom 1208 490 5 0 0 0 - - -, f 5;
#X obj 1263 513 osc~ 30;
#X floatatom 1263 492 5 0 0 0 - - -, f 5;
#X floatatom 1287 538 5 0 0 0 - - -, f 5;
#X obj 1264 559 *~ 0;
#X text 1199 405 simple distortion with audio input for the distortion
ratio;
#X text 1234 432 Left inlet : audio in;
#X obj 1208 616 min~ 1;
#X obj 1207 592 max~ -1;
#X text 1233 452 Right inlet : distortion (0 to 1). gives opposite
result with (-1 to 0);
#X obj 1143 643 distortion~;
#X obj 1113 583 r~ source.pd;
#X obj 1132 689 output~;
#X obj 1225 176 bitcrusher~ 24;
#X connect 4 0 5 0;
#X connect 5 0 50 0;
#X connect 6 0 7 0;
#X connect 7 0 8 0;
#X connect 8 0 9 0;
#X connect 9 0 14 0;
#X connect 9 0 64 0;
#X connect 9 0 65 0;
#X connect 10 0 9 1;
#X connect 11 0 10 0;
#X connect 12 0 11 0;
#X connect 13 0 12 0;
#X connect 15 0 21 0;
#X connect 17 0 18 0;
#X connect 18 0 22 0;
#X connect 19 0 18 1;
#X connect 21 0 17 0;
#X connect 21 0 16 0;
#X connect 22 0 17 1;
#X connect 22 0 20 0;
#X connect 22 0 23 0;
#X connect 23 0 28 0;
#X connect 23 1 29 0;
#X connect 23 2 27 0;
#X connect 23 3 24 0;
#X connect 23 4 26 0;
#X connect 23 5 25 0;
#X connect 24 0 34 0;
#X connect 25 0 35 0;
#X connect 26 0 33 0;
#X connect 27 0 32 0;
#X connect 28 0 63 0;
#X connect 29 0 62 0;
#X connect 30 0 7 0;
#X connect 31 0 7 0;
#X connect 32 0 37 0;
#X connect 33 0 37 0;
#X connect 34 0 37 0;
#X connect 35 0 37 0;
#X connect 36 0 39 0;
#X connect 36 1 43 0;
#X connect 36 2 46 0;
#X connect 38 0 36 0;
#X connect 39 0 40 0;
#X connect 41 0 49 0;
#X connect 42 0 44 0;
#X connect 44 0 30 0;
#X connect 44 1 31 0;
#X connect 45 0 8 1;
#X connect 47 0 45 0;
#X connect 48 0 21 1;
#X connect 49 0 4 0;
#X connect 49 0 53 0;
#X connect 50 0 6 0;
#X connect 51 0 4 1;
#X connect 51 0 59 0;
#X connect 52 0 51 0;
#X connect 52 0 60 0;
#X connect 53 0 52 0;
#X connect 53 0 54 0;
#X connect 54 0 58 0;
#X connect 55 0 54 1;
#X connect 56 0 53 0;
#X connect 57 0 8 1;
#X connect 58 0 57 0;
#X connect 59 0 57 0;
#X connect 60 0 57 0;
#X connect 61 0 3 0;
#X connect 62 0 37 0;
#X connect 63 0 37 0;
#X connect 66 0 67 0;
#X connect 66 1 67 1;
#X connect 68 0 66 3;
#X connect 69 0 66 4;
#X connect 70 0 66 5;
#X connect 75 0 66 0;
#X connect 76 0 1 0;
#X connect 77 0 61 0;
#X connect 78 0 76 0;
#X connect 82 0 81 0;
#X connect 84 0 85 0;
#X connect 85 0 82 1;
#X connect 85 0 83 0;
#X connect 85 0 83 1;
#X connect 87 0 82 0;
#X connect 88 0 92 0;
#X connect 88 0 92 1;
#X connect 89 0 108 1;
#X connect 91 0 108 0;
#X connect 93 0 94 0;
#X connect 94 0 103 0;
#X connect 95 0 93 0;
#X connect 96 0 99 0;
#X connect 97 0 96 0;
#X connect 98 0 99 1;
#X connect 99 0 103 0;
#X connect 102 0 105 1;
#X connect 103 0 102 0;
#X connect 105 0 107 0;
#X connect 105 0 107 1;
#X connect 106 0 105 0;
#X connect 108 0 88 0;
